<svg xmlns="http://www.w3.org/2000/svg">
  <symbol id="2fa" viewBox="0 0 24 24">
    <path d="M12,2,3,7v.5c0,6.82,2.35,10.39,4.33,12.18A9.08,9.08,0,0,0,11.88,22L12,22l.12,0a9.08,9.08,0,0,0,4.55-2.31C18.65,17.89,21,14.32,21,7.5V7ZM8,10.59l2.5,2.5,5-5,1.41,1.41L10.5,15.91,6.59,12Z"/>
  </symbol>
  <symbol id="2fa-outline" viewBox="0 0 24 24">
    <path d="M8.53,11.47a.75.75,0,0,0-1.06,1.06L10,15A.75.75,0,0,0,11,15v0h0L16,10.06A.75.75,0,0,0,14.94,9L10.5,13.44Z"/>
    <path d="M12,2.14,3.25,7.06V7.5c0,6.73,2.31,10.24,4.25,12a8.81,8.81,0,0,0,4.41,2.25h.19a8.81,8.81,0,0,0,4.41-2.25c1.94-1.76,4.25-5.26,4.25-12V7.06Zm0,18.1c-.89-.16-7.08-1.66-7.25-12.3L12,3.86l7.25,4.08C19.08,18.59,12.88,20.08,12,20.24Z"/>
  </symbol>
</svg>