<svg xmlns="http://www.w3.org/2000/svg" viewBox="0 0 24 24">
  <path fill-rule="evenodd" d="M13.334 4.75a.583.583 0 0 0-.584.583V7a.75.75 0 0 1-1.5 0V5.333c0-1.15.933-2.083 2.084-2.083h6.332c1.151 0 2.084.933 2.084 2.083v13.333a2.084 2.084 0 0 1-2.084 2.084h-6.332a2.083 2.083 0 0 1-2.084-2.084V17a.75.75 0 0 1 1.5 0v1.666c0 .323.261.584.584.584h6.332a.583.583 0 0 0 .584-.584V5.334a.583.583 0 0 0-.584-.584h-6.332ZM8.53 7.47a.75.75 0 0 1 0 1.06l-2.72 2.72H16a.75.75 0 0 1 0 1.5H5.81l2.72 2.72a.75.75 0 1 1-1.06 1.06l-4-4-.53-.53.53-.53 4-4a.75.75 0 0 1 1.06 0Z" clip-rule="evenodd"/>
</svg>
