<svg xmlns="http://www.w3.org/2000/svg" viewBox="0 0 24 24">
  <path d="M9.907 19.76a.75.75 0 0 1 .866-.614 7.304 7.304 0 0 0 2.344.018.75.75 0 0 1 .23 1.482 8.828 8.828 0 0 1-2.826-.021.75.75 0 0 1-.614-.865Zm7.894-3.41a.75.75 0 0 1 1.199.9c-.27.36-.57.7-.892 1.014a.75.75 0 1 1-1.047-1.074c.268-.26.515-.542.74-.841Zm-13.012-.801a.751.751 0 0 1 1.032.245c.216.35.462.683.733.991a.75.75 0 0 1-1.127.99 8.778 8.778 0 0 1-.883-1.194.75.75 0 0 1 .245-1.032ZM19 3.25a.75.75 0 0 1 .75.75v4.75H15a.75.75 0 0 1 0-1.5h2.473A7.23 7.23 0 0 0 12 4.75 7.25 7.25 0 0 0 4.75 12a.75.75 0 0 1-1.5 0 8.75 8.75 0 0 1 15-6.123V4a.75.75 0 0 1 .75-.75Z"/>
</svg>
