<svg xmlns="http://www.w3.org/2000/svg" viewBox="0 0 24 24">
  <path fill-rule="evenodd" d="M9 3.25a.75.75 0 0 0-.007 1.5H9l.058.004a2.316 2.316 0 0 1 1.026.37C10.6 5.468 11.25 6.218 11.25 8v6.19l-2.72-2.72a.75.75 0 0 0-1.06 1.06l4 4 .53.53.53-.53 4-4a.75.75 0 1 0-1.06-1.06l-2.72 2.72V8c0-2.218-.85-3.468-1.834-4.124A3.817 3.817 0 0 0 9.2 3.261a2.652 2.652 0 0 0-.175-.01H9.01l-.006-.001h-.003L9 4v-.75Zm-6 11a.75.75 0 0 1 .75.75v3.044c0 .404.117.737.268.95.152.215.292.256.366.256h15.232c.074 0 .214-.041.366-.256.151-.213.268-.546.268-.95V15a.75.75 0 0 1 1.5 0v3.044c0 .677-.193 1.322-.544 1.817-.348.493-.9.889-1.59.889H4.384c-.69 0-1.242-.396-1.59-.89-.35-.494-.544-1.139-.544-1.816V15a.75.75 0 0 1 .75-.75Z" clip-rule="evenodd"/>
</svg>
