<svg xmlns="http://www.w3.org/2000/svg" viewBox="0 0 24 24">
  <path fill-rule="evenodd" d="M12 4.25a.75.75 0 0 1 .75.75v9.19l2.72-2.72a.75.75 0 0 1 1.06 1.06l-4 4-.53.53-.53-.53-4-4a.75.75 0 1 1 1.06-1.06l2.72 2.72V5a.75.75 0 0 1 .75-.75Zm-9 10a.75.75 0 0 1 .75.75v3.044c0 .404.117.737.268.95.152.215.292.256.366.256h15.231c.075 0 .215-.041.367-.256.151-.213.268-.546.268-.95V15a.75.75 0 0 1 1.5 0v3.044c0 .677-.193 1.322-.544 1.817-.349.493-.9.889-1.59.889H4.383c-.69 0-1.242-.396-1.59-.89-.35-.494-.544-1.139-.544-1.816V15a.75.75 0 0 1 .75-.75Z" clip-rule="evenodd"/>
</svg>
