<svg xmlns="http://www.w3.org/2000/svg" viewBox="0 0 24 24">
  <path fill-rule="evenodd" d="m7 3.94.53.53 4 4a.75.75 0 1 1-1.06 1.06L7.75 6.81V15c0 1.782.65 2.532 1.166 2.876A2.319 2.319 0 0 0 10 18.25h.007a.75.75 0 0 1-.007 1.5V19l-.001.75h-.024a1.89 1.89 0 0 1-.175-.011 3.815 3.815 0 0 1-1.716-.615C7.1 18.468 6.25 17.218 6.25 15V6.81L3.53 9.53a.75.75 0 0 1-1.06-1.06l4-4L7 3.94Zm7 .31a.75.75 0 0 0-.007 1.5H14l.058.004a2.317 2.317 0 0 1 1.026.37C15.6 6.468 16.25 7.218 16.25 9v8.19l-2.72-2.72a.75.75 0 0 0-1.06 1.06l4 4 .53.53.53-.53 4-4a.75.75 0 1 0-1.06-1.06l-2.72 2.72V9c0-2.218-.85-3.468-1.834-4.124A3.817 3.817 0 0 0 14.2 4.26a2.659 2.659 0 0 0-.175-.01l-.015-.001h-.009L14 5v-.75Z" clip-rule="evenodd"/>
</svg>
