<svg xmlns="http://www.w3.org/2000/svg" viewBox="0 0 24 24">
  <path d="M16.354 7.331a.75.75 0 0 1 1.06.004l3.973 4 .524.528-.524.529-3.973 4a.75.75 0 0 1-1.064-1.057l2.702-2.722h-3.819l-3.562 4.02a.75.75 0 0 1-1.312-.496v-3.8l-2.815 4.217a.75.75 0 0 1-1.374-.416v-3.525H5.12a.75.75 0 0 1 0-1.5h1.8a.75.75 0 0 1 .75.75v1.801l2.816-4.217a.75.75 0 0 1 1.373.416v4.296l2.475-2.793a.751.751 0 0 1 .562-.253h4.156L16.35 8.392a.75.75 0 0 1 .003-1.06Zm-13.22 3.782a.75.75 0 0 1 0 1.5h-.341a.75.75 0 0 1 0-1.5h.342Z"/>
</svg>
