<svg xmlns="http://www.w3.org/2000/svg" viewBox="0 0 24 24">
  <path d="M12 3.5a2.748 2.748 0 0 1 .75 5.393v1.857H19a.75.75 0 0 1 .75.75v2.856A2.749 2.749 0 0 1 19 19.75a2.75 2.75 0 0 1-.75-5.394V12.25h-5.5v2.106A2.749 2.749 0 0 1 12 19.75a2.75 2.75 0 0 1-.75-5.394V12.25h-5.5v2.106A2.749 2.749 0 0 1 5 19.75a2.75 2.75 0 0 1-.75-5.394V11.5a.75.75 0 0 1 .75-.75h6.25V8.893A2.748 2.748 0 0 1 12 3.5ZM5 15.75a1.25 1.25 0 1 0 0 2.5 1.25 1.25 0 0 0 0-2.5Zm7 0a1.25 1.25 0 1 0 0 2.5 1.25 1.25 0 0 0 0-2.5Zm7 0a1.25 1.25 0 1 0 0 2.5 1.25 1.25 0 0 0 0-2.5ZM12 5a1.25 1.25 0 1 0 0 2.5A1.25 1.25 0 0 0 12 5Z"/>
</svg>
