<svg xmlns="http://www.w3.org/2000/svg" viewBox="0 0 24 24">
  <path d="M12 3.75a4.25 4.25 0 0 1 3.571 6.55l2.294 2.135a2.75 2.75 0 1 1-.994 1.125L14.55 11.4c-.52.39-1.133.664-1.8.783v3.423A2.749 2.749 0 0 1 12 21a2.75 2.75 0 0 1-.75-5.394v-3.423a4.23 4.23 0 0 1-1.846-.819l-2.256 2.043a2.75 2.75 0 1 1-1.063-1.06l2.312-2.093A4.25 4.25 0 0 1 12 3.75ZM12 17a1.25 1.25 0 1 0 0 2.5 1.25 1.25 0 0 0 0-2.5Zm-7.25-3.5a1.25 1.25 0 1 0 0 2.5 1.25 1.25 0 0 0 0-2.5Zm14.599 0a1.25 1.25 0 1 0 0 2.5 1.25 1.25 0 0 0 0-2.5ZM12 5.25a2.75 2.75 0 1 0 0 5.5 2.75 2.75 0 0 0 0-5.5Z"/>
</svg>
