<svg xmlns="http://www.w3.org/2000/svg" viewBox="0 0 24 24">
  <path fill-rule="evenodd" d="M12 3.75a8.25 8.25 0 1 0 0 16.5 8.25 8.25 0 0 0 0-16.5ZM2.25 12c0-5.384 4.365-9.75 9.75-9.75s9.75 4.366 9.75 9.75c0 5.385-4.365 9.75-9.75 9.75S2.25 17.386 2.25 12Zm8.51-3.839c-.296.246-.51.618-.51 1.173a.75.75 0 0 1-1.5 0c0-1 .411-1.795 1.052-2.327.624-.518 1.427-.756 2.198-.756.753 0 1.545.209 2.168.674A2.644 2.644 0 0 1 15.25 9.1c0 1.389-.844 2.28-1.495 2.873-.138.125-.258.23-.367.325a6.707 6.707 0 0 0-.454.42c-.15.156-.18.23-.184.243V14a.75.75 0 0 1-1.5 0v-1.05c0-.568.337-.993.598-1.267.177-.186.413-.393.628-.58l.27-.24c.598-.545 1.004-1.053 1.004-1.763 0-.447-.187-.756-.48-.974-.315-.235-.773-.376-1.27-.376-.479 0-.926.15-1.24.41Zm1.24 9.34a1 1 0 1 0 0-2.001 1 1 0 0 0 0 2Z" clip-rule="evenodd"/>
</svg>
