<svg xmlns="http://www.w3.org/2000/svg" viewBox="0 0 24 24">
  <path fill-rule="evenodd" d="M12 3.75a8.25 8.25 0 1 0 0 16.5 8.25 8.25 0 0 0 0-16.5ZM2.25 12c0-5.384 4.365-9.75 9.75-9.75s9.75 4.366 9.75 9.75c0 5.385-4.365 9.75-9.75 9.75S2.25 17.386 2.25 12Zm9.97-4.03a.75.75 0 0 1 1.06 0l3.5 3.5a.75.75 0 0 1 0 1.06l-3.5 3.5a.75.75 0 0 1-1.06-1.06L15.19 12l-2.97-2.97a.75.75 0 0 1 0-1.06Zm-3.44 0a.75.75 0 0 0-1.06 1.06L10.69 12l-2.97 2.97a.75.75 0 0 0 1.06 1.06l3.5-3.5a.75.75 0 0 0 0-1.06l-3.5-3.5Z" clip-rule="evenodd"/>
</svg>
