<svg xmlns="http://www.w3.org/2000/svg" viewBox="0 0 24 24">
  <path d="M12 2c.927 0 1.732.504 2.163 1.25H15.5c.69 0 1.25.56 1.25 1.25h1.75A1.5 1.5 0 0 1 20 6v14.5a1.5 1.5 0 0 1-1.5 1.5h-13A1.5 1.5 0 0 1 4 20.5V6a1.5 1.5 0 0 1 1.5-1.5h1.75c0-.69.56-1.25 1.25-1.25h1.337A2.495 2.495 0 0 1 12 2ZM5.5 20.5h13V6h-1.75v.75c0 .69-.56 1.25-1.25 1.25h-7a1.25 1.25 0 0 1-1.243-1.122L7.25 6.75V6H5.5v14.5Zm4.558-4.492a.75.75 0 0 1 1.01 1.11l-2.126 1.937a.75.75 0 0 1-1.051-.042l-.938-1a.75.75 0 1 1 1.094-1.026l.43.46 1.58-1.44ZM16.5 17.25a.75.75 0 0 1 0 1.5H13a.75.75 0 0 1 0-1.5h3.5Zm-6.442-4.742a.75.75 0 0 1 1.01 1.11l-2.126 1.937a.75.75 0 0 1-1.051-.042l-.938-1a.75.75 0 1 1 1.094-1.026l.43.46 1.58-1.44ZM16.5 13.75a.75.75 0 0 1 0 1.5H13a.75.75 0 0 1 0-1.5h3.5Zm-6.442-4.742a.75.75 0 0 1 1.01 1.11l-2.126 1.937a.75.75 0 0 1-1.051-.042l-.938-1a.75.75 0 1 1 1.094-1.026l.43.46 1.58-1.44ZM16.5 10.25a.75.75 0 0 1 0 1.5H13a.75.75 0 0 1 0-1.5h3.5ZM12 3.5a1 1 0 0 0-.957.714.75.75 0 0 1-.719.536H8.75V6.5h6.5V4.75h-1.574a.75.75 0 0 1-.719-.536A1 1 0 0 0 12 3.5Z"/>
</svg>
