<svg xmlns="http://www.w3.org/2000/svg" viewBox="0 0 24 24">
  <path fill-rule="evenodd" d="M12 2.25a.75.75 0 0 1 .75.75v1.287a7.752 7.752 0 0 1 6.964 6.964H21a.75.75 0 0 1 0 1.5h-1.286a7.752 7.752 0 0 1-6.964 6.964V21a.75.75 0 0 1-1.5 0v-1.286a7.752 7.752 0 0 1-6.964-6.964H3a.75.75 0 0 1 0-1.5h1.286a7.752 7.752 0 0 1 6.964-6.964V3a.75.75 0 0 1 .75-.75Zm.75 15.956v-.205a.75.75 0 0 0-1.5 0v.205a6.253 6.253 0 0 1-5.455-5.455H6a.75.75 0 0 0 0-1.5h-.205a6.253 6.253 0 0 1 5.455-5.456v.206a.75.75 0 0 0 1.5 0v-.206a6.253 6.253 0 0 1 5.456 5.456H18a.75.75 0 0 0 0 1.5h.206a6.253 6.253 0 0 1-5.456 5.455ZM12 14.001a2 2 0 1 0 0-4 2 2 0 0 0 0 4Z" clip-rule="evenodd"/>
</svg>
