<svg xmlns="http://www.w3.org/2000/svg" viewBox="0 0 24 24">
  <path d="M16 3.25c.966 0 1.75.784 1.75 1.75v4.543a3.65 3.65 0 0 0-1.5-.71V5a.25.25 0 0 0-.25-.25H5a.25.25 0 0 0-.25.25v14c0 .138.112.25.25.25h6.168a2.75 2.75 0 0 0 1.068 1.5H5A1.75 1.75 0 0 1 3.25 19V5c0-.966.784-1.75 1.75-1.75h11Zm-.531 6.5c1.521 0 2.719 1.263 2.719 2.775v1.332c.59.281 1 .883 1 1.58V18.5a1.75 1.75 0 0 1-1.75 1.75h-3.625a1.75 1.75 0 0 1-1.75-1.75v-3.063c0-.566.27-1.068.687-1.388v-1.524c0-1.512 1.197-2.775 2.719-2.775Zm-1.656 5.438a.25.25 0 0 0-.25.25V18.5c0 .138.111.25.25.25h3.624a.25.25 0 0 0 .25-.25v-3.063a.25.25 0 0 0-.25-.25h-3.625ZM10 15.25a.75.75 0 0 1 0 1.5H7a.75.75 0 0 1 0-1.5h3Zm5.469-4c-.654 0-1.219.551-1.219 1.275v1.162h2.438v-1.162c0-.724-.566-1.275-1.22-1.275Zm-5.469 0a.75.75 0 0 1 0 1.5H7a.75.75 0 0 1 0-1.5h3Zm3-4a.75.75 0 0 1 0 1.5H7a.75.75 0 0 1 0-1.5h6Z"/>
</svg>
