<svg xmlns="http://www.w3.org/2000/svg" viewBox="0 0 24 24">
  <path fill-rule="evenodd" d="M3.25 4A.75.75 0 0 1 4 3.25h13a.75.75 0 0 1 .75.75v4.208A5.504 5.504 0 0 0 16.25 8V4.75H4.75v14.5h11.5V19c.52 0 1.023-.073 1.5-.207V20a.75.75 0 0 1-.75.75H4a.75.75 0 0 1-.75-.75V4Zm13 6.25a3.25 3.25 0 1 0 3.093 4.25h1.552a4.752 4.752 0 0 1-9.395-1 4.75 4.75 0 0 1 8.125-3.342v-.157a.625.625 0 1 1 1.25 0v2.625H18.25a.625.625 0 0 1 0-1.25h.46a3.242 3.242 0 0 0-2.46-1.125ZM7 7.25a.75.75 0 0 0 0 1.5h6a.75.75 0 0 0 0-1.5H7ZM6.25 12a.75.75 0 0 1 .75-.75h2.5a.75.75 0 0 1 0 1.5H7a.75.75 0 0 1-.75-.75ZM7 15.25a.75.75 0 0 0 0 1.5h2.5a.75.75 0 0 0 0-1.5H7Z" clip-rule="evenodd"/>
</svg>
