<svg xmlns="http://www.w3.org/2000/svg" viewBox="0 0 24 24">
  <path d="M3.299 15.632a.75.75 0 0 1 0 1.5h-.52a.75.75 0 0 1 0-1.5h.52ZM14.14 6.779a.72.72 0 0 1 .132.013h6.363c.414 0 .689.33.614.738l-1.628 8.852a.935.935 0 0 1-.886.737h-6.022a.745.745 0 0 1-.132.013H5.896a.75.75 0 0 1 0-1.5h6.686a.76.76 0 0 1 .13.012h5.546l.99-5.386-6.201 3.08c-.25.124-.525.123-.729 0l-5.403-3.282c-.325-.198-.374-.646-.107-1.002.266-.356.746-.484 1.072-.286l5.075 3.082 6.603-3.278.056-.304H14.27a.754.754 0 0 1-.13.011h-3.505a.75.75 0 0 1 0-1.5h3.506ZM6.41 12.74a.75.75 0 0 1-.002 1.5H4.552a.75.75 0 0 1 0-1.5H6.41Zm-.817-2.98a.75.75 0 0 1 0 1.5h-2.25a.75.75 0 0 1 0-1.5h2.25Zm2.745-2.98a.751.751 0 0 1 0 1.5H6.41a.75.75 0 0 1 0-1.5h1.929Z"/>
</svg>
