<svg xmlns="http://www.w3.org/2000/svg" viewBox="0 0 24 24">
  <path fill-rule="evenodd" d="M12 6.25c-4.354 0-6.76 2.428-9.066 4.754l-.464.466a.75.75 0 0 0 0 1.061l.464.467C5.24 15.324 7.646 17.751 12 17.751c4.354 0 6.76-2.427 9.066-4.753l.464-.467a.75.75 0 0 0 0-1.06l-.464-.467C18.76 8.678 16.354 6.25 12 6.25Zm0 10c-3.65 0-5.635-1.932-7.941-4.25C6.365 9.685 8.349 7.75 12 7.75c3.65 0 5.635 1.934 7.941 4.25-2.306 2.318-4.29 4.25-7.941 4.25ZM12 15a3 3 0 1 0 0-6 3 3 0 0 0 0 6Z" clip-rule="evenodd"/>
</svg>
