<svg xmlns="http://www.w3.org/2000/svg" viewBox="0 0 24 24">
  <path fill-rule="evenodd" d="M3.75 12.001a8.25 8.25 0 1 1 16.5 0 8.25 8.25 0 0 1-16.5 0ZM12 2.251c-5.385 0-9.75 4.365-9.75 9.75s4.365 9.75 9.75 9.75 9.75-4.365 9.75-9.75-4.365-9.75-9.75-9.75Zm-3.25 8.75a1.25 1.25 0 1 0 0-2.5 1.25 1.25 0 0 0 0 2.5Zm7.75-1.25a1.25 1.25 0 1 1-2.5 0 1.25 1.25 0 0 1 2.5 0Zm-7.876 3.834a.75.75 0 1 0-1.248.832c2.297 3.445 6.951 3.445 9.248 0a.75.75 0 1 0-1.248-.832c-1.703 2.555-5.049 2.555-6.752 0Z" clip-rule="evenodd"/>
</svg>
