<svg xmlns="http://www.w3.org/2000/svg" viewBox="0 0 24 24">
  <path fill-rule="evenodd" d="M3.75 12a8.25 8.25 0 1 1 16.5.001 8.25 8.25 0 0 1-16.5 0ZM12 2.25c-5.385 0-9.75 4.366-9.75 9.75 0 5.386 4.365 9.75 9.75 9.75s9.75-4.364 9.75-9.75c0-5.384-4.365-9.75-9.75-9.75ZM8.75 11a1.25 1.25 0 1 0 0-2.5 1.25 1.25 0 0 0 0 2.5Zm7.75-1.25a1.25 1.25 0 1 1-2.5 0 1.25 1.25 0 0 1 2.5 0Zm-8.916 7.125a.75.75 0 0 0 1.04-.208c1.703-2.555 5.049-2.555 6.752 0a.75.75 0 1 0 1.248-.832c-2.297-3.445-6.951-3.445-9.248 0a.75.75 0 0 0 .208 1.04Z" clip-rule="evenodd"/>
</svg>
