<svg xmlns="http://www.w3.org/2000/svg" viewBox="0 0 24 24">
  <path d="M9 2a4.5 4.5 0 0 1 3.325 7.53c.21.079.403.193.574.333a1.851 1.851 0 0 1 1.254-.44l.227.017c.63.084 1.17.45 1.527.95a1.89 1.89 0 0 1 1.139-.195c1.137.152 1.983 1.219 1.983 2.343a.76.76 0 0 1-.01.11c.006.036.01.072.01.11v2.39c0 1.208-.356 2.787-1.006 4.08-.623 1.24-1.683 2.522-3.226 2.522h-4.446c-1.707 0-2.971-.927-3.77-1.771a7.903 7.903 0 0 1-1.139-1.56 4.601 4.601 0 0 1-.061-.115l-.018-.034-.005-.011-.002-.003v-.002l.674-.327-.676.326-.012-.03H5.34l-.002-.006-.01-.02c-.007-.02-.02-.047-.035-.083l-.134-.307c-.115-.262-.277-.63-.466-1.051a85.162 85.162 0 0 0-1.282-2.752c-.286-.578-.35-1.194-.053-1.727.281-.505.788-.754 1.243-.848.7-.146 1.629.01 2.267.582V6.323c0-.626.369-1.123.726-1.427.357-.302.856-.546 1.357-.546.435 0 .93.154 1.328.46.417.32.754.833.754 1.513v3.163a2.007 2.007 0 0 1 .996-.045V6.323a2.88 2.88 0 0 0-1.146-2.306 3.24 3.24 0 0 0-1.936-.667c-.804 0-1.524.377-2.004.784-.482.409-1.08 1.16-1.08 2.19v3.402A4.5 4.5 0 0 1 9 2Zm-.048 3.85a.438.438 0 0 0-.146.04.973.973 0 0 0-.24.15c-.172.145-.197.261-.197.283v8.281l-.004.078-.002.008c-.002.02-.008.04-.012.061-.005.027-.01.055-.018.081-.006.018-.015.034-.022.05a.594.594 0 0 1-.033.077c-.009.017-.02.032-.03.048a.744.744 0 0 1-.048.07l-.041.043a.73.73 0 0 1-.14.118l-.011.006c-.018.01-.035.022-.053.031-.019.01-.038.016-.057.024l-.007.003a.733.733 0 0 1-.184.044l-.06.006-.028.002a.759.759 0 0 1-.095-.006l-.007-.001c-.032-.005-.063-.014-.094-.023a.73.73 0 0 1-.318-.176.744.744 0 0 1-.156-.207l-.001-.004-.007-.013-.034-.065a43.032 43.032 0 0 0-.92-1.592c-.077-.125-.223-.244-.44-.32a1.249 1.249 0 0 0-.64-.05.594.594 0 0 0-.192.07.196.196 0 0 0-.045.04l-.002.007a.142.142 0 0 0-.003.04c.002.046.019.14.09.285.436.88.928 1.955 1.308 2.805.19.425.355.796.47 1.061l.137.312.036.083.005.01c0 .003.002.005.004.008a5.613 5.613 0 0 0 .225.386c.164.259.41.603.732.944.653.692 1.55 1.302 2.68 1.302h4.445c.63 0 1.312-.555 1.886-1.696.548-1.09.846-2.438.846-3.406v-2.39a.77.77 0 0 1 .008-.11.76.76 0 0 1-.008-.11c0-.438-.353-.811-.682-.855-.236-.032-.483.123-.483.5v.254a.75.75 0 0 1-1.5 0v-.654c0-.439-.354-.811-.682-.855-.236-.032-.483.123-.483.5v.054c0 .014-.002.028-.003.041 0 .016.003.031.003.046v.367a.75.75 0 0 1-1.5 0v-.367c0-.413-.309-.67-.582-.67-.274 0-.583.257-.583.67v.367a.75.75 0 0 1-1.5 0v-.367c0-.047.004-.094.007-.14a.755.755 0 0 1-.007-.092V6.323A.383.383 0 0 0 9.366 6a.746.746 0 0 0-.414-.15Z"/>
</svg>
