<svg xmlns="http://www.w3.org/2000/svg" viewBox="0 0 24 24">
  <path d="M2.75 16.5a.75.75 0 0 1 .75.75v1.25h1.25a.75.75 0 0 1 0 1.5h-2a.75.75 0 0 1-.75-.75v-2a.75.75 0 0 1 .75-.75Zm18.5 0a.75.75 0 0 1 .75.75v2a.75.75 0 0 1-.75.75h-2a.75.75 0 0 1 0-1.5h1.25v-1.25a.75.75 0 0 1 .75-.75Zm-7.75-5.56 2.5-2.5 4.53 4.53a.75.75 0 0 1-1.06 1.06L16 10.56l-6.599 6.6a.75.75 0 0 1-1.06-1.061L12.44 12 9 8.56l-4.47 4.47a.75.75 0 1 1-1.06-1.06L9 6.44l4.5 4.5ZM4.75 4a.75.75 0 0 1 0 1.5H3.5v1.25a.75.75 0 0 1-1.5 0v-2A.75.75 0 0 1 2.75 4h2Zm16.5 0a.75.75 0 0 1 .75.75v2a.75.75 0 0 1-1.5 0V5.5h-1.25a.75.75 0 0 1 0-1.5h2Z"/>
</svg>
