<svg xmlns="http://www.w3.org/2000/svg" viewBox="0 0 24 24">
  <path d="M20.25 3.75c.423 0 .834.128 1.157.37.323.242.593.634.593 1.13v10.5c0 .496-.27.888-.593 1.13-.323.242-.734.37-1.157.37h-.75v1.25c0 .496-.27.888-.593 1.13-.323.242-.734.37-1.157.37h-14c-.423 0-.835-.128-1.157-.37C2.27 19.388 2 18.996 2 18.5V8c0-.496.27-.888.593-1.13.322-.242.734-.37 1.157-.37h.75V5.25c0-.496.27-.888.593-1.13.322-.242.734-.37 1.157-.37h14ZM9.06 18.5h8.69a.452.452 0 0 0 .25-.065V16.06l-3.25-3.25-5.69 5.69ZM3.5 15.06v3.375a.453.453 0 0 0 .25.065h3.19l4.25-4.25-3.44-3.44-4.25 4.25Zm2.75-9.81a.456.456 0 0 0-.25.064V6.5h11.75c.423 0 .834.128 1.157.37.323.242.593.634.593 1.13v7.75h.75a.452.452 0 0 0 .25-.065V5.315a.456.456 0 0 0-.25-.065h-14ZM3.75 8a.456.456 0 0 0-.25.064v4.876l4.25-4.25 4.5 4.5 2.5-2.5L18 13.94V8.064A.456.456 0 0 0 17.75 8h-14Z"/>
</svg>
