<svg xmlns="http://www.w3.org/2000/svg" viewBox="0 0 24 24">
  <path d="M7.4 13.55a.75.75 0 0 1 1.2.9l-3 4a.75.75 0 0 1-1.27-.116l-1-2a.75.75 0 0 1 1.341-.67l.457.915 2.272-3.03Zm11.6 2.7a.75.75 0 0 1 0 1.5h-9a.75.75 0 0 1 0-1.5h9ZM7.4 8.55a.75.75 0 0 1 1.2.9l-3 4a.75.75 0 0 1-1.27-.115l-1-2a.75.75 0 0 1 1.341-.67l.457.914L7.4 8.549Zm11.6 2.7a.75.75 0 0 1 0 1.5h-9a.75.75 0 0 1 0-1.5h9ZM7.4 3.55a.75.75 0 0 1 1.2.9l-3 4a.75.75 0 0 1-1.27-.115l-1-2a.75.75 0 0 1 1.341-.67l.457.914L7.4 3.549ZM19 6.25a.75.75 0 0 1 0 1.5h-9a.75.75 0 0 1 0-1.5h9Z"/>
</svg>
