<svg xmlns="http://www.w3.org/2000/svg" viewBox="0 0 24 24">
  <path fill-rule="evenodd" d="M3.75 2.375A1.75 1.75 0 0 0 2 4.125v14.59l1.227-1.01 4.042-3.33h8.981a1.75 1.75 0 0 0 1.75-1.75v-8.5a1.75 1.75 0 0 0-1.75-1.75H3.75Zm-.25 1.75a.25.25 0 0 1 .25-.25h12.5a.25.25 0 0 1 .25.25v8.5a.25.25 0 0 1-.25.25H6.73l-.207.171-3.023 2.49V4.126Zm4.5 12.5v-.75h1.5v.75c0 .138.112.25.25.25h7.504l.202.154 3.044 2.329V8.125a.25.25 0 0 0-.25-.25h-.75v-1.5h.75c.966 0 1.75.784 1.75 1.75v14.268l-1.206-.922-4.048-3.096H9.75A1.75 1.75 0 0 1 8 16.625Z" clip-rule="evenodd"/>
</svg>
