<svg xmlns="http://www.w3.org/2000/svg" viewBox="0 0 24 24">
  <path d="M18 9.25a.75.75 0 0 1 .75.75v1c0 3.183-1.07 5.168-2.531 6.336-1.133.906-2.43 1.265-3.469 1.374v1.79h2.5a.75.75 0 0 1 0 1.5h-6.5a.75.75 0 0 1 0-1.5h2.5v-1.79c-1.038-.11-2.336-.468-3.469-1.374C6.321 16.168 5.25 14.183 5.25 11v-1a.75.75 0 0 1 1.5 0v1c0 2.817.93 4.332 1.969 5.164 1.072.858 2.383 1.086 3.281 1.086.898 0 2.209-.228 3.281-1.086 1.04-.832 1.969-2.347 1.969-5.164v-1a.75.75 0 0 1 .75-.75ZM12 2a4 4 0 0 1 4 4v6a4 4 0 0 1-8 0V6a4 4 0 0 1 4-4Zm0 1.5A2.5 2.5 0 0 0 9.5 6v6a2.5 2.5 0 0 0 5 0V6A2.5 2.5 0 0 0 12 3.5Z"/>
</svg>
