<svg xmlns="http://www.w3.org/2000/svg" viewBox="0 0 24 24">
  <path d="M15.5 2a.75.75 0 0 1 .75.75V8a.75.75 0 0 1-.75.75h-2.75v1.951c.227.132.416.322.548.549h2.404a1.498 1.498 0 0 1 2.596 0H20a.75.75 0 0 1 0 1.5h-1.702c-.132.227-.32.416-.548.548V15h2.75a.75.75 0 0 1 .75.75V21a.75.75 0 0 1-.75.75h-7a.75.75 0 0 1-.75-.75v-5.25a.75.75 0 0 1 .75-.75h2.75v-1.702a1.506 1.506 0 0 1-.548-.548h-2.404a1.498 1.498 0 0 1-2.596 0H8.298c-.132.227-.32.416-.548.548V15h2.75a.75.75 0 0 1 .75.75V21a.75.75 0 0 1-.75.75h-7a.75.75 0 0 1-.75-.75v-5.25A.75.75 0 0 1 3.5 15h2.75v-1.702a1.505 1.505 0 0 1-.548-.548H4a.75.75 0 0 1 0-1.5h1.702a1.498 1.498 0 0 1 2.596 0h2.404a1.51 1.51 0 0 1 .548-.549V8.75H8.5A.75.75 0 0 1 7.75 8V2.75A.75.75 0 0 1 8.5 2h7ZM4.25 20.25h5.5V16.5h-5.5v3.75Zm10 0h5.5V16.5h-5.5v3.75Zm-5-13h5.5V3.5h-5.5v3.75Z"/>
</svg>
