<svg xmlns="http://www.w3.org/2000/svg" viewBox="0 0 24 24">
  <path d="M15.5 2.5a.75.75 0 0 1 .75.75v.5h1.25c.966 0 1.75.784 1.75 1.75v13a1.75 1.75 0 0 1-1.75 1.75h-11a1.75 1.75 0 0 1-1.75-1.75v-13c0-.966.784-1.75 1.75-1.75h1.25v-.5a.75.75 0 0 1 1.5 0v.5h2v-.5a.75.75 0 0 1 1.5 0v.5h2v-.5a.75.75 0 0 1 .75-.75Zm-9 2.75a.25.25 0 0 0-.25.25v13c0 .138.112.25.25.25h11a.25.25 0 0 0 .25-.25v-13a.25.25 0 0 0-.25-.25h-1.25v.5a.75.75 0 0 1-1.5 0v-.5h-2v.5a.75.75 0 0 1-1.5 0v-.5h-2v.5a.75.75 0 0 1-1.5 0v-.5H6.5Zm8.5 9a.75.75 0 0 1 0 1.5H9a.75.75 0 0 1 0-1.5h6Zm0-3a.75.75 0 0 1 0 1.5H9a.75.75 0 0 1 0-1.5h6Zm0-3a.75.75 0 0 1 0 1.5H9a.75.75 0 0 1 0-1.5h6Z"/>
</svg>
