<svg xmlns="http://www.w3.org/2000/svg" viewBox="0 0 24 24">
  <path fill-rule="evenodd" d="M4.75 3a.75.75 0 0 1 .75-.75h13a.75.75 0 0 1 .75.75v18a.75.75 0 0 1-1.166.624l-2.614-1.743-3.098 1.77a.75.75 0 0 1-.744 0l-3.098-1.77-2.614 1.743A.75.75 0 0 1 4.75 21V3Zm8 3.5v-.75h-1.5v1.085a2.85 2.85 0 0 0-1.08.497c-.55.42-.92 1.064-.92 1.882 0 .956.327 1.644.877 2.132.479.426 1.091.66 1.556.836l.05.019c.53.202.89.349 1.144.574.2.178.373.443.373 1.01a.81.81 0 0 1-.33.69c-.22.168-.552.275-.92.275s-.7-.107-.92-.275a.81.81 0 0 1-.33-.69v-.75h-1.5v.75c0 .82.37 1.464.92 1.883a2.85 2.85 0 0 0 1.08.497v1.085h1.5v-1.085a2.85 2.85 0 0 0 1.08-.497c.55-.42.92-1.063.92-1.882 0-.956-.327-1.643-.877-2.132-.479-.426-1.091-.659-1.556-.836l-.05-.019c-.53-.201-.89-.348-1.144-.574-.2-.178-.373-.443-.373-1.01a.81.81 0 0 1 .33-.69c.22-.168.551-.275.92-.275.368 0 .7.107.92.275.2.152.33.365.33.69v.75h1.5v-.75c0-.82-.37-1.463-.92-1.883a2.836 2.836 0 0 0-1.08-.497V6.5Z" clip-rule="evenodd"/>
</svg>
