<svg xmlns="http://www.w3.org/2000/svg" viewBox="0 0 24 24">
  <path d="M20.309 7.007c.522-.055.765.63.325.916L9.956 14.857a3.024 3.024 0 1 1-1.795-1.219l9.834-6.386 2.314-.245ZM8.75 15.75a1.525 1.525 0 1 0-2.557 1.662A1.525 1.525 0 0 0 8.75 15.75Zm11.883.325c.44.287.197.973-.325.917l-2.314-.245-4.556-2.959 1.837-1.192 5.358 3.48ZM4.937 5.772a3.025 3.025 0 0 1 5.072 3.294l-.053.076 1.647 1.07-1.836 1.192L8.16 10.36a3.014 3.014 0 0 1-2.336-.406 3.025 3.025 0 0 1-.888-4.183Zm3.366.368a1.525 1.525 0 1 0-1.66 2.558 1.525 1.525 0 0 0 1.66-2.558Z"/>
</svg>
