<svg xmlns="http://www.w3.org/2000/svg" viewBox="0 0 24 24">
  <path d="M19 4.5c.966 0 1.75.784 1.75 1.75v2.5c0 .372-.117.716-.315 1 .198.284.315.628.315 1v2.5c0 .372-.117.716-.315 1 .198.284.315.628.315 1v2.5A1.75 1.75 0 0 1 19 19.5H5a1.75 1.75 0 0 1-1.75-1.75v-2.5c0-.372.117-.716.314-1a1.741 1.741 0 0 1-.314-1v-2.5c0-.372.117-.716.314-1a1.741 1.741 0 0 1-.314-1v-2.5c0-.966.784-1.75 1.75-1.75h14ZM5 15a.25.25 0 0 0-.25.25v2.5c0 .138.112.25.25.25h14a.25.25 0 0 0 .25-.25v-2.5A.25.25 0 0 0 19 15H5Zm2 .5a1 1 0 1 1 0 2 1 1 0 0 1 0-2Zm-2-5a.25.25 0 0 0-.25.25v2.5c0 .138.112.25.25.25h14a.25.25 0 0 0 .25-.25v-2.5a.25.25 0 0 0-.25-.25H5Zm2 .5a1 1 0 1 1 0 2 1 1 0 0 1 0-2ZM5 6a.25.25 0 0 0-.25.25v2.5c0 .138.112.25.25.25h14a.25.25 0 0 0 .25-.25v-2.5A.25.25 0 0 0 19 6H5Zm2 .5a1 1 0 1 1 0 2 1 1 0 0 1 0-2Z"/>
</svg>
