<svg xmlns="http://www.w3.org/2000/svg" viewBox="0 0 24 24">
  <path d="M19.629 10.64a7.75 7.75 0 0 1-5.138 8.698c.004.053.009.107.009.162a2.5 2.5 0 1 1-.55-1.563 6.25 6.25 0 0 0 4.195-7.075c.364.031.73.002 1.085-.09l.155-.043c.083-.026.164-.057.244-.09ZM5.873 5.083a2.5 2.5 0 0 1 2.5 2.5 2.497 2.497 0 0 1-2.318 2.49 6.25 6.25 0 0 0 3.273 7.577 3.248 3.248 0 0 0-.547 1.399A7.749 7.749 0 0 1 4.59 9.726a2.496 2.496 0 0 1-1.217-2.143 2.5 2.5 0 0 1 2.5-2.5ZM12 4.25a7.71 7.71 0 0 1 4.683 1.577 2.5 2.5 0 1 1-.722 1.342A6.218 6.218 0 0 0 12 5.75a6.221 6.221 0 0 0-3.049.793 3.25 3.25 0 0 0-.794-1.272A7.712 7.712 0 0 1 12 4.25Z"/>
</svg>
