<svg xmlns="http://www.w3.org/2000/svg" viewBox="0 0 24 24">
  <path fill-rule="evenodd" d="M6.377 5.95c.396-.445.962-.7 1.557-.7H20c.966 0 1.75.784 1.75 1.75v10A1.75 1.75 0 0 1 20 18.75H7.934a2.084 2.084 0 0 1-1.557-.699l-.017-.02-.016-.02-3.587-4.649a2.084 2.084 0 0 1 0-2.724L6.344 5.99l.016-.02.017-.02ZM9.47 8.47a.75.75 0 0 1 1.06 0L13 10.94l2.47-2.47a.75.75 0 0 1 1.06 1.06L14.06 12l2.47 2.47a.75.75 0 0 1-1.06 1.06L13 13.06l-2.47 2.47a.75.75 0 1 1-1.06-1.06L11.94 12 9.47 9.53a.75.75 0 0 1 0-1.06Z" clip-rule="evenodd"/>
</svg>
