<svg xmlns="http://www.w3.org/2000/svg" viewBox="0 0 24 24">
  <path fill-rule="evenodd" d="M3.93 11.573 7.512 6.93a.583.583 0 0 1 .422-.18H20a.25.25 0 0 1 .25.25v10a.25.25 0 0 1-.25.25H7.934a.583.583 0 0 1-.422-.181L3.93 12.427l-.016-.02-.017-.02a.584.584 0 0 1 0-.774l.017-.02.016-.02ZM7.934 5.25c-.595 0-1.161.255-1.557.7l-.017.019-.016.02-3.587 4.65a2.084 2.084 0 0 0 0 2.723l3.587 4.649.016.02.017.02c.396.444.962.7 1.557.7H20A1.75 1.75 0 0 0 21.75 17V7A1.75 1.75 0 0 0 20 5.25H7.934ZM7.75 12a1.25 1.25 0 1 1 2.5 0 1.25 1.25 0 0 1-2.5 0ZM9 9.25a2.75 2.75 0 1 0 0 5.5 2.75 2.75 0 0 0 0-5.5Z" clip-rule="evenodd"/>
</svg>
