<svg xmlns="http://www.w3.org/2000/svg" viewBox="0 0 24 24">
  <path d="m22 15.246-.676.067a6.722 6.722 0 0 0-6.01 6.011l-.068.676h-6.71l.046-.794c.396-6.792 5.833-12.227 12.624-12.623L22 8.537v6.71Zm-1.5-5.09A11.94 11.94 0 0 0 10.156 20.5h3.762a8.225 8.225 0 0 1 6.582-6.583v-3.76Zm-5.082-7.362c-.396 6.792-5.833 12.227-12.624 12.623L2 15.463v-6.71l.676-.066a6.722 6.722 0 0 0 6.01-6.011L8.755 2h6.71l-.046.794Zm-5.336.706A8.224 8.224 0 0 1 3.5 10.082v3.76A11.94 11.94 0 0 0 13.844 3.5h-3.762Z"/>
</svg>
