<svg xmlns="http://www.w3.org/2000/svg" viewBox="0 0 24 24">
  <path d="M17.84 14c.745 0 1.433.224 1.937.706.509.486.754 1.16.754 1.9 0 .64-.17 1.146-.302 1.486.343.204.686.466.978.783.43.468.793 1.105.793 1.875a.75.75 0 0 1-1.5 0c0-.278-.13-.57-.397-.86a2.954 2.954 0 0 0-.713-.552l-.257-.13a.893.893 0 0 1-.472-.488.976.976 0 0 1-.047-.524c.034-.196.13-.42.176-.535.12-.302.241-.633.241-1.056 0-.404-.127-.658-.29-.814-.167-.16-.452-.29-.9-.291-.448 0-.712.131-.862.28-.15.15-.273.405-.273.825 0 .417.124.75.25 1.043.048.11.148.323.192.49a.993.993 0 0 1 .014.492.854.854 0 0 1-.484.578h-.001a9.42 9.42 0 0 0-.72.378c.176.342.293.732.293 1.164a.75.75 0 0 1-1.5 0c0-.278-.13-.57-.397-.86a2.95 2.95 0 0 0-.713-.552l-.257-.13a.892.892 0 0 1-.472-.488.976.976 0 0 1-.047-.524c.034-.196.13-.42.176-.535.12-.302.241-.633.241-1.056 0-.404-.127-.658-.29-.814-.167-.16-.451-.291-.9-.291-.448 0-.712.13-.862.28-.15.15-.273.405-.273.825 0 .417.124.75.25 1.043.048.11.148.323.192.49a.993.993 0 0 1 .014.492.854.854 0 0 1-.484.578h-.001a11.91 11.91 0 0 0-1.34.752c-.045.03-.148.164-.24.446a2.777 2.777 0 0 0-.1.412l-.002.022-.001.003-.013.073a.75.75 0 0 1-1.475-.256v-.009l.003-.014.006-.048a4.253 4.253 0 0 1 .154-.646 3.4 3.4 0 0 1 .191-.467 3.257 3.257 0 0 0-.22-.138l-.257-.13a.893.893 0 0 1-.472-.488.977.977 0 0 1-.047-.524c.034-.196.13-.42.176-.535.12-.302.241-.633.241-1.056 0-.404-.127-.658-.29-.814-.167-.16-.452-.29-.9-.291-.448 0-.712.131-.862.28-.15.15-.273.405-.273.825 0 .417.124.75.25 1.043.048.11.148.323.192.49a.992.992 0 0 1 .014.492.854.854 0 0 1-.484.578h-.001a11.83 11.83 0 0 0-1.34.752c-.045.03-.149.165-.24.446a2.776 2.776 0 0 0-.1.412l-.002.022-.001.003-.013.073a.75.75 0 0 1-1.475-.256v-.009l.003-.014.006-.048a4.252 4.252 0 0 1 .154-.646c.11-.338.346-.914.852-1.242.34-.22.7-.427 1.004-.59a3.895 3.895 0 0 1-.32-1.506c0-.723.222-1.396.716-1.888S5.595 14 6.34 14c.744 0 1.431.224 1.936.706.509.486.754 1.16.754 1.9 0 .64-.17 1.146-.302 1.486.165.098.329.21.488.335.194-.116.385-.223.558-.317a3.894 3.894 0 0 1-.32-1.505c0-.723.222-1.396.716-1.888S11.345 14 12.09 14c.745 0 1.431.224 1.936.706.509.486.754 1.16.754 1.9 0 .64-.17 1.146-.302 1.486.165.098.329.21.488.335.194-.116.385-.223.558-.317a3.896 3.896 0 0 1-.32-1.505c0-.723.222-1.396.716-1.888S17.095 14 17.84 14Zm-5.09-7.863c.202.07.4.166.577.287.405.274.83.758.83 1.451v.45h-1.5v-.45c0-.02-.008-.099-.17-.209A.986.986 0 0 0 12 7.5c-.193 0-.397.042-.525.118a.264.264 0 0 0-.096.088.314.314 0 0 0-.035.169v.005l.003.016a.33.33 0 0 0 .016.054.646.646 0 0 0 .112.177c.118.137.344.311.75.438 1.226.386 1.931 1.183 1.931 2.123l-.004.14c-.043.683-.4 1.159-.874 1.43a2.178 2.178 0 0 1-.528.212v.842h-1.5v-.854a2.261 2.261 0 0 1-.531-.223 1.734 1.734 0 0 1-.875-1.547v-.358h1.5v.357c0 .1.022.145.035.165a.275.275 0 0 0 .1.091c.132.078.338.12.52.12.216 0 .415-.039.535-.107a.215.215 0 0 0 .084-.075.28.28 0 0 0 .034-.115l.004-.079c0-.06-.036-.424-.88-.69C10.602 9.63 9.93 8.832 9.85 8.034l-.007-.159c0-.747.382-1.26.867-1.547.174-.103.358-.176.539-.226v-.848h1.5v.883ZM12 2a7.5 7.5 0 0 1 6.968 10.28.75.75 0 0 1-1.393-.557 6 6 0 1 0-11.15 0 .75.75 0 0 1-1.393.556A7.5 7.5 0 0 1 12 2Z"/>
</svg>
