<svg xmlns="http://www.w3.org/2000/svg" viewBox="0 0 24 24">
  <path d="M12 6.5c.687 0 1.259.175 1.714.493a2.7 2.7 0 0 1 .916 1.142c.349.789.342 1.634.342 1.909 0 .388-.098.91-.304 1.426-.159.4-.398.83-.739 1.207.01.01.031.028.074.05.205.103.486.19.86.297l.087.025c.242-.252.51-.465.777-.639-.128-.361-.313-.922-.313-1.642 0-.76.224-1.46.706-1.974.488-.52 1.168-.773 1.915-.773.75 0 1.422.255 1.899.785.467.519.67 1.216.67 1.962 0 .722-.19 1.29-.333 1.664.304.18.67.415 1.012.663.487.352.707.957.808 1.304a4.864 4.864 0 0 1 .145.678l.006.049.002.015v.007l-.242.027.243-.027a.751.751 0 0 1-1.49.162l-.002-.002-.003-.026a3.416 3.416 0 0 0-.1-.462 1.95 1.95 0 0 0-.14-.363.496.496 0 0 0-.105-.147 11.15 11.15 0 0 0-1.287-.806l-.085-.05a.858.858 0 0 1-.373-.538 1.05 1.05 0 0 1 .013-.464c.04-.169.131-.386.18-.512.123-.317.25-.696.25-1.172 0-.487-.13-.788-.284-.96-.145-.16-.382-.287-.784-.287-.403 0-.66.129-.82.3-.165.175-.3.475-.3.947 0 .48.123.857.24 1.183.046.13.133.357.163.552a1.02 1.02 0 0 1-.04.495.896.896 0 0 1-.449.506l-.137.073c-.042.024-.082.05-.123.077.218.127.43.282.614.478a2.1 2.1 0 0 1 .567 1.476v1.142a.75.75 0 0 1-1.5 0v-1.142c0-.222-.066-.349-.162-.45-.116-.125-.312-.248-.615-.369a5.702 5.702 0 0 0-.394-.137.74.74 0 0 1-.208-.063c-.134-.04-.274-.08-.42-.122-.356-.102-.77-.224-1.12-.4h-.002a1.667 1.667 0 0 1-.773-.768 2.114 2.114 0 0 1-.19-.844.75.75 0 0 1 .269-.606c.281-.234.495-.572.64-.935.146-.367.197-.7.197-.87 0-.284-.007-.836-.214-1.304a1.205 1.205 0 0 0-.402-.517C12.686 8.104 12.424 8 12 8c-.423 0-.685.104-.855.223a1.203 1.203 0 0 0-.402.517c-.207.468-.214 1.02-.214 1.304 0 .17.05.5.194.864.143.36.355.696.635.933a.75.75 0 0 1 .256.684c-.024.16-.077.43-.197.704-.114.262-.333.63-.746.838-.35.176-.765.298-1.12.4l-.426.123a.739.739 0 0 1-.204.061 5.625 5.625 0 0 0-.393.138c-.304.12-.499.244-.616.368-.095.102-.162.229-.162.451v1.142a.75.75 0 0 1-1.5 0v-1.142c0-.603.212-1.096.568-1.476.183-.196.394-.35.612-.477-.041-.026-.08-.054-.122-.078l-.138-.073a.897.897 0 0 1-.449-.506 1.02 1.02 0 0 1-.04-.495c.03-.195.118-.422.164-.552.116-.326.24-.702.24-1.183 0-.472-.136-.772-.3-.948-.16-.17-.418-.3-.82-.3-.402 0-.64.128-.784.289-.154.17-.285.472-.285.959 0 .476.128.855.25 1.172.05.126.14.344.18.512.022.088.057.264.013.464a.858.858 0 0 1-.372.538l-.086.05c-.235.118-.781.44-1.286.806a.493.493 0 0 0-.104.147c-.054.1-.102.227-.142.363a3.394 3.394 0 0 0-.1.462l-.003.026v.002a.75.75 0 0 1-1.492-.162l.243.027-.242-.027v-.007l.002-.015.007-.049a4.883 4.883 0 0 1 .145-.678c.101-.347.32-.952.807-1.304a14.03 14.03 0 0 1 1.013-.663 4.556 4.556 0 0 1-.333-1.664c0-.746.203-1.443.67-1.962.476-.53 1.148-.785 1.898-.785.748 0 1.427.253 1.915.773.483.515.706 1.214.706 1.974 0 .72-.184 1.281-.312 1.642.267.174.534.389.776.64l.089-.026c.365-.104.641-.19.845-.29a.42.42 0 0 0 .053-.095 4.065 4.065 0 0 1-.707-1.177c-.203-.512-.3-1.03-.3-1.418 0-.275-.007-1.12.341-1.91.18-.407.466-.826.916-1.14.456-.319 1.027-.494 1.714-.494Z"/>
</svg>
