<svg xmlns="http://www.w3.org/2000/svg" viewBox="0 0 24 24">
  <path d="M15 5a2 2 0 0 1 2 2v1.615L18.644 7.1C19.924 5.916 22 6.825 22 8.569v6.863c0 1.743-2.075 2.652-3.356 1.47L17 15.384V17a2 2 0 0 1-2 2H4a2 2 0 0 1-2-2V7a2 2 0 0 1 2-2h11ZM4 6.5a.5.5 0 0 0-.5.5v10a.5.5 0 0 0 .5.5h11a.5.5 0 0 0 .5-.5V7a.5.5 0 0 0-.5-.5H4Zm16.5 2.068a.5.5 0 0 0-.839-.368l-2.5 2.308a.502.502 0 0 0-.161.368v2.248c0 .14.058.274.161.368l2.5 2.308a.5.5 0 0 0 .839-.368V8.568ZM13.25 9a.75.75 0 0 1 0 1.5h-4.5a.75.75 0 0 1 0-1.5h4.5Z"/>
</svg>
