<svg xmlns="http://www.w3.org/2000/svg" viewBox="0 0 24 24">
  <path d="M21.25 17.498a.75.75 0 0 1 .75.75v.957l.002.001v1.046a1.75 1.75 0 0 1-1.75 1.749h-1.046V22h-.954a.75.75 0 0 1 0-1.5h1.5v.001h.5a.25.25 0 0 0 .25-.25v-.503H20.5v-1.5a.75.75 0 0 1 .75-.75ZM2.751 17.5a.75.75 0 0 1 .75.75v1.5h-.002v.5c0 .138.112.25.25.25h2.003a.75.75 0 0 1 0 1.5H3.749a1.75 1.75 0 0 1-1.75-1.75v-1.046h.002v-.954a.75.75 0 0 1 .75-.75ZM12 5.256a6.751 6.751 0 0 1 0 13.5 6.751 6.751 0 0 1 0-13.5Zm0 1.5a5.25 5.25 0 0 0-5.25 5.25l.007.27A5.252 5.252 0 0 0 12 17.255a5.251 5.251 0 0 0 0-10.5Zm2.042 6.167a.75.75 0 0 1 1.248.832c-1.63 2.445-4.95 2.444-6.581 0a.75.75 0 0 1 1.248-.832c1.036 1.554 3.049 1.554 4.085 0Zm-4.208-3.25a.834.834 0 1 1-.002 1.668.834.834 0 0 1 .002-1.668Zm4.333 0a.834.834 0 1 1-.002 1.668.834.834 0 0 1 .002-1.668ZM5.75 2a.75.75 0 0 1 0 1.5h-2a.25.25 0 0 0-.25.25v2.003a.75.75 0 0 1-1.5 0V3.75C2 2.784 2.784 2 3.75 2h2Zm14 .001h.503c.966 0 1.75.784 1.75 1.751v1.046L22 4.797v.954a.75.75 0 0 1-1.5 0v-1.5h.003v-.5a.25.25 0 0 0-.25-.25h-1.046V3.5h-.957a.75.75 0 0 1 0-1.5h1.5v.001Z"/>
</svg>
