<svg xmlns="http://www.w3.org/2000/svg" viewBox="0 0 24 24">
  <path d="M11.512 4.715a.751.751 0 0 1 1.238.57v13.43a.75.75 0 0 1-1.238.57l-3.29-2.82H5a.75.75 0 0 1-.75-.75v-7.43a.75.75 0 0 1 .75-.75h3.223l3.289-2.82ZM8.988 8.853a.75.75 0 0 1-.488.181H5.75v5.932H8.5c.179 0 .352.064.488.18l2.262 1.939V6.914l-2.262 1.94Zm10.482.617a.75.75 0 0 1 1.06 1.06l-1.97 1.97 1.97 1.97a.75.75 0 0 1-1.06 1.06l-1.97-1.97-1.97 1.97a.75.75 0 1 1-1.06-1.06l1.97-1.97-1.97-1.97a.75.75 0 0 1 1.06-1.06l1.97 1.97 1.97-1.97Z"/>
</svg>
