<svg xmlns="http://www.w3.org/2000/svg" viewBox="0 0 24 24">
  <path d="M12.028 3.531c.574-.344 1.15-.418 1.687-.277.503.133.898.437 1.186.711.245.234.464.5.614.679l.147-.087c.22-.134.522-.32.848-.455.332-.139.747-.25 1.206-.196.474.058.915.282 1.31.676.376.377.599.799.652 1.26.052.446-.065.84-.2 1.15-.128.297-.31.593-.425.792-.06.107-.104.193-.137.263l.169.155c.197.18.465.427.698.718.233.291.468.672.555 1.134.09.485.005.994-.293 1.492a2.09 2.09 0 0 1-1.226.967c-.456.132-.91.101-1.274.038a7.134 7.134 0 0 1-.804-.2c-.08.204-.19.481-.326.749-.322.628-.968 1.523-2.202 1.446a2.01 2.01 0 0 1-1.469-.73l-5.992 5.993c-.825.825-2.204.97-3.073.1-.87-.87-.724-2.247.1-3.072l5.976-5.976c-.035-.03-.07-.06-.104-.092-.405-.391-.64-.93-.623-1.604a2.09 2.09 0 0 1 .503-1.345c.285-.331.64-.539.94-.68.262-.121.558-.223.732-.287-.04-.204-.124-.56-.167-.896-.088-.695-.07-1.788.992-2.426Zm4.212 10.824a.5.5 0 0 1 .937 0l.544 1.46a.5.5 0 0 0 .275.288l1.455.608a.5.5 0 0 1 0 .923l-1.455.608a.5.5 0 0 0-.275.287l-.544 1.461a.5.5 0 0 1-.937 0l-.544-1.46a.5.5 0 0 0-.275-.288l-1.455-.608a.5.5 0 0 1 0-.923l1.455-.608a.5.5 0 0 0 .275-.287l.544-1.461Zm-11.4 3.543c-.341.342-.287.765-.1.95.185.187.609.242.951-.1l6.39-6.392a7.335 7.335 0 0 1-.115-.747 8.96 8.96 0 0 1-.73-.108L4.84 17.898Zm-1.349-7.546a.5.5 0 0 1 .928 0l.198.49a.5.5 0 0 0 .283.28l.469.18a.5.5 0 0 1 0 .934l-.469.18a.5.5 0 0 0-.283.278l-.198.49a.5.5 0 0 1-.928 0l-.197-.49a.501.501 0 0 0-.284-.279l-.47-.18a.5.5 0 0 1 0-.933l.47-.18a.5.5 0 0 0 .284-.28l.197-.49Zm9.84-5.648c-.118-.031-.28-.037-.53.114-.254.152-.347.398-.277.95.036.28.096.516.154.811.025.13.052.287.06.438.004.113.005.323-.09.538l-.046.092a1.16 1.16 0 0 1-.44.417 2.8 2.8 0 0 1-.377.172c-.26.1-.457.16-.68.264-.208.097-.35.195-.438.298a.596.596 0 0 0-.14.403c-.006.273.076.402.166.489.117.112.314.211.602.288.283.075.583.111.87.143.13.015.283.03.408.053.063.011.145.029.228.057a.96.96 0 0 1 .26.133l.108.095.067.08a.739.739 0 0 1 .1.184.97.97 0 0 1 .043.137c.015.064.025.13.031.178.012.094.025.23.037.343.027.253.066.543.14.821.163.602.394.827.72.847.295.018.521-.142.773-.633.122-.238.21-.48.31-.731.045-.113.101-.248.163-.366.032-.06.077-.135.136-.21a.936.936 0 0 1 .312-.256.932.932 0 0 1 .404-.095c.097-.001.185.01.252.022.131.022.273.063.388.096.257.075.5.152.756.197.254.044.453.042.6 0 .12-.036.242-.107.357-.297.12-.201.124-.34.104-.446-.024-.129-.1-.285-.25-.473a4.95 4.95 0 0 0-.537-.545c-.093-.085-.2-.18-.289-.268a2 2 0 0 1-.284-.334 1.031 1.031 0 0 1-.13-.773c.073-.349.249-.668.38-.897.151-.265.265-.448.35-.645.08-.184.096-.299.086-.38-.007-.064-.04-.187-.223-.371-.192-.192-.334-.237-.429-.248-.11-.013-.252.008-.448.09a5.102 5.102 0 0 0-.65.354c-.208.126-.508.312-.805.402l-.073.019a.882.882 0 0 1-.537-.065 1.167 1.167 0 0 1-.268-.174 2.898 2.898 0 0 1-.316-.326c-.195-.23-.362-.444-.572-.644-.206-.197-.383-.307-.535-.348Zm-7.644.158a.5.5 0 0 1 .93 0l.378.958a.5.5 0 0 0 .282.28l.958.38a.5.5 0 0 1 0 .93l-.958.377a.502.502 0 0 0-.282.283l-.378.958a.5.5 0 0 1-.93 0L5.31 8.07a.502.502 0 0 0-.282-.283L4.07 7.41a.5.5 0 0 1 0-.93l.958-.378a.5.5 0 0 0 .282-.281l.378-.958Z"/>
</svg>
