<svg xmlns="http://www.w3.org/2000/svg" viewBox="0 0 24 24">
  <path fill-rule="evenodd" d="M12.887 20H11.27c-.151 0-.275-.144-.275-.322v-1.843H8.38c-.209 0-.379-.2-.379-.444V15.9c0-.099.029-.196.08-.274l4.633-6.922H8.587c-.21 0-.38-.2-.38-.444V6.61c0-.245.17-.445.38-.445h2.407V4.322c0-.177.123-.322.275-.322h1.617c.151 0 .274.145.274.322v1.843h2.46c.21 0 .38.2.38.445v1.424a.497.497 0 0 1-.08.274l-4.662 6.987h4.363c.209 0 .379.199.379.444v1.651c0 .245-.17.444-.38.444l-2.458.001v1.843c0 .178-.123.322-.275.322" clip-rule="evenodd"/>
</svg>
